<mxfile host="app.diagrams.net" modified="2023-11-14T16:23:21.266Z" agent="Mozilla/5.0 (Windows NT 10.0; Win64; x64) AppleWebKit/537.36 (KHTML, like Gecko) Chrome/119.0.0.0 Safari/537.36 Edg/119.0.0.0" version="22.1.1" etag="KPNU9To9BdzZPiU1S-ru" type="github">
  <diagram name="Page-1" id="Kl8Ro2FNH6hyEfKem5H1">
    <mxGraphModel>
      <root>
        <mxCell id="0" />
        <mxCell id="1" parent="0" />
        <mxCell id="2" value="Hotel" style="swimlane;fontStyle=1;align=center;verticalAlign=top;childLayout=stackLayout;horizontal=1;startSize=28.4;horizontalStack=0;resizeParent=1;resizeParentMax=0;resizeLast=0;collapsible=0;marginBottom=0;" vertex="1" parent="1">
          <mxGeometry x="307" y="8" width="228" height="150" as="geometry" />
        </mxCell>
        <mxCell id="3" value="+ name : string" style="text;strokeColor=none;fillColor=none;align=left;verticalAlign=top;spacingLeft=4;spacingRight=4;overflow=hidden;rotatable=0;points=[[0,0.5],[1,0.5]];portConstraint=eastwest;" vertex="1" parent="2">
          <mxGeometry y="28" width="228" height="28" as="geometry" />
        </mxCell>
        <mxCell id="4" value="+ location : string" style="text;strokeColor=none;fillColor=none;align=left;verticalAlign=top;spacingLeft=4;spacingRight=4;overflow=hidden;rotatable=0;points=[[0,0.5],[1,0.5]];portConstraint=eastwest;" vertex="1" parent="2">
          <mxGeometry y="57" width="228" height="28" as="geometry" />
        </mxCell>
        <mxCell id="5" value="+ numOfRooms : number" style="text;strokeColor=none;fillColor=none;align=left;verticalAlign=top;spacingLeft=4;spacingRight=4;overflow=hidden;rotatable=0;points=[[0,0.5],[1,0.5]];portConstraint=eastwest;" vertex="1" parent="2">
          <mxGeometry y="85" width="228" height="28" as="geometry" />
        </mxCell>
        <mxCell id="6" style="line;strokeWidth=1;fillColor=none;align=left;verticalAlign=middle;spacingTop=-1;spacingLeft=3;spacingRight=3;rotatable=0;labelPosition=right;points=[];portConstraint=eastwest;strokeColor=inherit;" vertex="1" parent="2">
          <mxGeometry y="114" width="228" height="8" as="geometry" />
        </mxCell>
        <mxCell id="7" value="+ checkAvailability() : boolean" style="text;strokeColor=none;fillColor=none;align=left;verticalAlign=top;spacingLeft=4;spacingRight=4;overflow=hidden;rotatable=0;points=[[0,0.5],[1,0.5]];portConstraint=eastwest;" vertex="1" parent="2">
          <mxGeometry y="122" width="228" height="28" as="geometry" />
        </mxCell>
        <mxCell id="8" value="Customer" style="swimlane;fontStyle=1;align=center;verticalAlign=top;childLayout=stackLayout;horizontal=1;startSize=27.5;horizontalStack=0;resizeParent=1;resizeParentMax=0;resizeLast=0;collapsible=0;marginBottom=0;" vertex="1" parent="1">
          <mxGeometry x="8" y="227" width="202" height="173" as="geometry" />
        </mxCell>
        <mxCell id="9" value="+ name : string" style="text;strokeColor=none;fillColor=none;align=left;verticalAlign=top;spacingLeft=4;spacingRight=4;overflow=hidden;rotatable=0;points=[[0,0.5],[1,0.5]];portConstraint=eastwest;" vertex="1" parent="8">
          <mxGeometry y="28" width="202" height="28" as="geometry" />
        </mxCell>
        <mxCell id="10" value="+ phoneNumber : string" style="text;strokeColor=none;fillColor=none;align=left;verticalAlign=top;spacingLeft=4;spacingRight=4;overflow=hidden;rotatable=0;points=[[0,0.5],[1,0.5]];portConstraint=eastwest;" vertex="1" parent="8">
          <mxGeometry y="55" width="202" height="28" as="geometry" />
        </mxCell>
        <mxCell id="11" value="+ email : string" style="text;strokeColor=none;fillColor=none;align=left;verticalAlign=top;spacingLeft=4;spacingRight=4;overflow=hidden;rotatable=0;points=[[0,0.5],[1,0.5]];portConstraint=eastwest;" vertex="1" parent="8">
          <mxGeometry y="83" width="202" height="28" as="geometry" />
        </mxCell>
        <mxCell id="12" style="line;strokeWidth=1;fillColor=none;align=left;verticalAlign=middle;spacingTop=-1;spacingLeft=3;spacingRight=3;rotatable=0;labelPosition=right;points=[];portConstraint=eastwest;strokeColor=inherit;" vertex="1" parent="8">
          <mxGeometry y="110" width="202" height="8" as="geometry" />
        </mxCell>
        <mxCell id="13" value="+ makeReservation() : void" style="text;strokeColor=none;fillColor=none;align=left;verticalAlign=top;spacingLeft=4;spacingRight=4;overflow=hidden;rotatable=0;points=[[0,0.5],[1,0.5]];portConstraint=eastwest;" vertex="1" parent="8">
          <mxGeometry y="118" width="202" height="28" as="geometry" />
        </mxCell>
        <mxCell id="14" value="+ makePayment() : void" style="text;strokeColor=none;fillColor=none;align=left;verticalAlign=top;spacingLeft=4;spacingRight=4;overflow=hidden;rotatable=0;points=[[0,0.5],[1,0.5]];portConstraint=eastwest;" vertex="1" parent="8">
          <mxGeometry y="146" width="202" height="28" as="geometry" />
        </mxCell>
        <mxCell id="15" value="Employee" style="swimlane;fontStyle=1;align=center;verticalAlign=top;childLayout=stackLayout;horizontal=1;startSize=28.4;horizontalStack=0;resizeParent=1;resizeParentMax=0;resizeLast=0;collapsible=0;marginBottom=0;" vertex="1" parent="1">
          <mxGeometry x="326" y="239" width="176" height="150" as="geometry" />
        </mxCell>
        <mxCell id="16" value="+ name : string" style="text;strokeColor=none;fillColor=none;align=left;verticalAlign=top;spacingLeft=4;spacingRight=4;overflow=hidden;rotatable=0;points=[[0,0.5],[1,0.5]];portConstraint=eastwest;" vertex="1" parent="15">
          <mxGeometry y="28" width="176" height="28" as="geometry" />
        </mxCell>
        <mxCell id="17" value="+ employeeId : string" style="text;strokeColor=none;fillColor=none;align=left;verticalAlign=top;spacingLeft=4;spacingRight=4;overflow=hidden;rotatable=0;points=[[0,0.5],[1,0.5]];portConstraint=eastwest;" vertex="1" parent="15">
          <mxGeometry y="57" width="176" height="28" as="geometry" />
        </mxCell>
        <mxCell id="18" value="+ role : string" style="text;strokeColor=none;fillColor=none;align=left;verticalAlign=top;spacingLeft=4;spacingRight=4;overflow=hidden;rotatable=0;points=[[0,0.5],[1,0.5]];portConstraint=eastwest;" vertex="1" parent="15">
          <mxGeometry y="85" width="176" height="28" as="geometry" />
        </mxCell>
        <mxCell id="19" style="line;strokeWidth=1;fillColor=none;align=left;verticalAlign=middle;spacingTop=-1;spacingLeft=3;spacingRight=3;rotatable=0;labelPosition=right;points=[];portConstraint=eastwest;strokeColor=inherit;" vertex="1" parent="15">
          <mxGeometry y="114" width="176" height="8" as="geometry" />
        </mxCell>
        <mxCell id="20" value="+ checkInGuest() : void" style="text;strokeColor=none;fillColor=none;align=left;verticalAlign=top;spacingLeft=4;spacingRight=4;overflow=hidden;rotatable=0;points=[[0,0.5],[1,0.5]];portConstraint=eastwest;" vertex="1" parent="15">
          <mxGeometry y="122" width="176" height="28" as="geometry" />
        </mxCell>
        <mxCell id="21" value="Payment" style="swimlane;fontStyle=1;align=center;verticalAlign=top;childLayout=stackLayout;horizontal=1;startSize=29.75;horizontalStack=0;resizeParent=1;resizeParentMax=0;resizeLast=0;collapsible=0;marginBottom=0;" vertex="1" parent="1">
          <mxGeometry x="153" y="711" width="196" height="127" as="geometry" />
        </mxCell>
        <mxCell id="22" value="+ paymentId : string" style="text;strokeColor=none;fillColor=none;align=left;verticalAlign=top;spacingLeft=4;spacingRight=4;overflow=hidden;rotatable=0;points=[[0,0.5],[1,0.5]];portConstraint=eastwest;" vertex="1" parent="21">
          <mxGeometry y="30" width="196" height="30" as="geometry" />
        </mxCell>
        <mxCell id="23" value="+ amount : number" style="text;strokeColor=none;fillColor=none;align=left;verticalAlign=top;spacingLeft=4;spacingRight=4;overflow=hidden;rotatable=0;points=[[0,0.5],[1,0.5]];portConstraint=eastwest;" vertex="1" parent="21">
          <mxGeometry y="60" width="196" height="30" as="geometry" />
        </mxCell>
        <mxCell id="24" style="line;strokeWidth=1;fillColor=none;align=left;verticalAlign=middle;spacingTop=-1;spacingLeft=3;spacingRight=3;rotatable=0;labelPosition=right;points=[];portConstraint=eastwest;strokeColor=inherit;" vertex="1" parent="21">
          <mxGeometry y="89" width="196" height="8" as="geometry" />
        </mxCell>
        <mxCell id="25" value="+ processPayment() : void" style="text;strokeColor=none;fillColor=none;align=left;verticalAlign=top;spacingLeft=4;spacingRight=4;overflow=hidden;rotatable=0;points=[[0,0.5],[1,0.5]];portConstraint=eastwest;" vertex="1" parent="21">
          <mxGeometry y="97" width="196" height="30" as="geometry" />
        </mxCell>
        <mxCell id="26" value="Reservation" style="swimlane;fontStyle=1;align=center;verticalAlign=top;childLayout=stackLayout;horizontal=1;startSize=27.5;horizontalStack=0;resizeParent=1;resizeParentMax=0;resizeLast=0;collapsible=0;marginBottom=0;" vertex="1" parent="1">
          <mxGeometry x="288" y="469" width="210" height="173" as="geometry" />
        </mxCell>
        <mxCell id="27" value="+ reservationId : string" style="text;strokeColor=none;fillColor=none;align=left;verticalAlign=top;spacingLeft=4;spacingRight=4;overflow=hidden;rotatable=0;points=[[0,0.5],[1,0.5]];portConstraint=eastwest;" vertex="1" parent="26">
          <mxGeometry y="28" width="210" height="28" as="geometry" />
        </mxCell>
        <mxCell id="28" value="+ checkInDate : Date" style="text;strokeColor=none;fillColor=none;align=left;verticalAlign=top;spacingLeft=4;spacingRight=4;overflow=hidden;rotatable=0;points=[[0,0.5],[1,0.5]];portConstraint=eastwest;" vertex="1" parent="26">
          <mxGeometry y="55" width="210" height="28" as="geometry" />
        </mxCell>
        <mxCell id="29" value="+ checkOutDate : Date" style="text;strokeColor=none;fillColor=none;align=left;verticalAlign=top;spacingLeft=4;spacingRight=4;overflow=hidden;rotatable=0;points=[[0,0.5],[1,0.5]];portConstraint=eastwest;" vertex="1" parent="26">
          <mxGeometry y="83" width="210" height="28" as="geometry" />
        </mxCell>
        <mxCell id="30" style="line;strokeWidth=1;fillColor=none;align=left;verticalAlign=middle;spacingTop=-1;spacingLeft=3;spacingRight=3;rotatable=0;labelPosition=right;points=[];portConstraint=eastwest;strokeColor=inherit;" vertex="1" parent="26">
          <mxGeometry y="110" width="210" height="8" as="geometry" />
        </mxCell>
        <mxCell id="31" value="+ reserveRoom() : void" style="text;strokeColor=none;fillColor=none;align=left;verticalAlign=top;spacingLeft=4;spacingRight=4;overflow=hidden;rotatable=0;points=[[0,0.5],[1,0.5]];portConstraint=eastwest;" vertex="1" parent="26">
          <mxGeometry y="118" width="210" height="28" as="geometry" />
        </mxCell>
        <mxCell id="32" value="+ cancelReservation() : void" style="text;strokeColor=none;fillColor=none;align=left;verticalAlign=top;spacingLeft=4;spacingRight=4;overflow=hidden;rotatable=0;points=[[0,0.5],[1,0.5]];portConstraint=eastwest;" vertex="1" parent="26">
          <mxGeometry y="146" width="210" height="28" as="geometry" />
        </mxCell>
        <mxCell id="33" value="Room" style="swimlane;fontStyle=1;align=center;verticalAlign=top;childLayout=stackLayout;horizontal=1;startSize=27.5;horizontalStack=0;resizeParent=1;resizeParentMax=0;resizeLast=0;collapsible=0;marginBottom=0;" vertex="1" parent="1">
          <mxGeometry x="552" y="227" width="180" height="173" as="geometry" />
        </mxCell>
        <mxCell id="34" value="+ roomNumber : string" style="text;strokeColor=none;fillColor=none;align=left;verticalAlign=top;spacingLeft=4;spacingRight=4;overflow=hidden;rotatable=0;points=[[0,0.5],[1,0.5]];portConstraint=eastwest;" vertex="1" parent="33">
          <mxGeometry y="28" width="180" height="28" as="geometry" />
        </mxCell>
        <mxCell id="35" value="+ roomType : string" style="text;strokeColor=none;fillColor=none;align=left;verticalAlign=top;spacingLeft=4;spacingRight=4;overflow=hidden;rotatable=0;points=[[0,0.5],[1,0.5]];portConstraint=eastwest;" vertex="1" parent="33">
          <mxGeometry y="55" width="180" height="28" as="geometry" />
        </mxCell>
        <mxCell id="36" value="+ price : number" style="text;strokeColor=none;fillColor=none;align=left;verticalAlign=top;spacingLeft=4;spacingRight=4;overflow=hidden;rotatable=0;points=[[0,0.5],[1,0.5]];portConstraint=eastwest;" vertex="1" parent="33">
          <mxGeometry y="83" width="180" height="28" as="geometry" />
        </mxCell>
        <mxCell id="37" style="line;strokeWidth=1;fillColor=none;align=left;verticalAlign=middle;spacingTop=-1;spacingLeft=3;spacingRight=3;rotatable=0;labelPosition=right;points=[];portConstraint=eastwest;strokeColor=inherit;" vertex="1" parent="33">
          <mxGeometry y="110" width="180" height="8" as="geometry" />
        </mxCell>
        <mxCell id="38" value="+ assignRoom() : void" style="text;strokeColor=none;fillColor=none;align=left;verticalAlign=top;spacingLeft=4;spacingRight=4;overflow=hidden;rotatable=0;points=[[0,0.5],[1,0.5]];portConstraint=eastwest;" vertex="1" parent="33">
          <mxGeometry y="118" width="180" height="28" as="geometry" />
        </mxCell>
        <mxCell id="39" value="+ unassignRoom() : void" style="text;strokeColor=none;fillColor=none;align=left;verticalAlign=top;spacingLeft=4;spacingRight=4;overflow=hidden;rotatable=0;points=[[0,0.5],[1,0.5]];portConstraint=eastwest;" vertex="1" parent="33">
          <mxGeometry y="146" width="180" height="28" as="geometry" />
        </mxCell>
        <mxCell id="40" value="has" style="curved=1;startArrow=diamondThin;startSize=14;startFill=1;endArrow=none;exitX=1.0028354577850878;exitY=0.8776331873866703;entryX=0.5012803819444445;entryY=0;" edge="1" parent="1" source="2" target="33">
          <mxGeometry relative="1" as="geometry">
            <Array as="points">
              <mxPoint x="642" y="193" />
            </Array>
          </mxGeometry>
        </mxCell>
        <mxCell id="41" value="1" style="edgeLabel;resizable=0;align=left;verticalAlign=top;" vertex="1" parent="40">
          <mxGeometry x="-1" relative="1" as="geometry" />
        </mxCell>
        <mxCell id="42" value="many" style="edgeLabel;resizable=0;align=right;verticalAlign=top;" vertex="1" parent="40">
          <mxGeometry x="1" relative="1" as="geometry" />
        </mxCell>
        <mxCell id="43" value="employs" style="curved=1;startArrow=diamondThin;startSize=14;startFill=1;endArrow=none;exitX=0.47984505020577983;exitY=1;entryX=0.5005548650568182;entryY=-0.0033333333333333335;" edge="1" parent="1" source="2" target="15">
          <mxGeometry relative="1" as="geometry">
            <Array as="points">
              <mxPoint x="414" y="193" />
            </Array>
          </mxGeometry>
        </mxCell>
        <mxCell id="44" value="1" style="edgeLabel;resizable=0;align=left;verticalAlign=top;" vertex="1" parent="43">
          <mxGeometry x="-1" relative="1" as="geometry" />
        </mxCell>
        <mxCell id="45" value="many" style="edgeLabel;resizable=0;align=right;verticalAlign=top;" vertex="1" parent="43">
          <mxGeometry x="1" relative="1" as="geometry" />
        </mxCell>
        <mxCell id="46" value="has" style="curved=1;startArrow=diamondThin;startSize=14;startFill=1;endArrow=none;exitX=0.07357768283615715;exitY=1;entryX=0.11107447240259732;entryY=0;" edge="1" parent="1" source="2" target="26">
          <mxGeometry relative="1" as="geometry">
            <Array as="points">
              <mxPoint x="279" y="193" />
              <mxPoint x="279" y="435" />
            </Array>
          </mxGeometry>
        </mxCell>
        <mxCell id="47" value="1" style="edgeLabel;resizable=0;align=left;verticalAlign=top;" vertex="1" parent="46">
          <mxGeometry x="-1" relative="1" as="geometry" />
        </mxCell>
        <mxCell id="48" value="many" style="edgeLabel;resizable=0;align=right;verticalAlign=top;" vertex="1" parent="46">
          <mxGeometry x="1" relative="1" as="geometry" />
        </mxCell>
        <mxCell id="49" value="makes" style="curved=1;startArrow=diamondThin;startSize=14;startFill=1;endArrow=none;exitX=0.6877757644372392;exitY=1;entryX=-0.002176339285714286;entryY=0.18117999627377415;" edge="1" parent="1" source="8" target="26">
          <mxGeometry relative="1" as="geometry">
            <Array as="points">
              <mxPoint x="162" y="435" />
            </Array>
          </mxGeometry>
        </mxCell>
        <mxCell id="50" value="1" style="edgeLabel;resizable=0;align=left;verticalAlign=top;" vertex="1" parent="49">
          <mxGeometry x="-1" relative="1" as="geometry" />
        </mxCell>
        <mxCell id="51" value="many" style="edgeLabel;resizable=0;align=right;verticalAlign=top;" vertex="1" parent="49">
          <mxGeometry x="1" relative="1" as="geometry" />
        </mxCell>
        <mxCell id="52" value="makes" style="curved=1;startArrow=none;endArrow=none;exitX=0.4253928144945176;exitY=1;entryX=0.0010463169642857143;entryY=0.03756035515136039;" edge="1" parent="1" source="8" target="21">
          <mxGeometry relative="1" as="geometry">
            <Array as="points">
              <mxPoint x="88" y="435" />
              <mxPoint x="88" y="677" />
            </Array>
          </mxGeometry>
        </mxCell>
        <mxCell id="53" value="1" style="edgeLabel;resizable=0;align=left;verticalAlign=top;" vertex="1" parent="52">
          <mxGeometry x="-1" relative="1" as="geometry" />
        </mxCell>
        <mxCell id="54" value="many" style="edgeLabel;resizable=0;align=right;verticalAlign=top;" vertex="1" parent="52">
          <mxGeometry x="1" relative="1" as="geometry" />
        </mxCell>
        <mxCell id="55" value="checks-in" style="curved=1;startArrow=none;endArrow=none;exitX=0.5005548650568182;exitY=0.9966666666666667;entryX=0.5714487867719402;entryY=0;" edge="1" parent="1" source="15" target="26">
          <mxGeometry relative="1" as="geometry">
            <Array as="points">
              <mxPoint x="414" y="435" />
            </Array>
          </mxGeometry>
        </mxCell>
        <mxCell id="56" value="1" style="edgeLabel;resizable=0;align=left;verticalAlign=top;" vertex="1" parent="55">
          <mxGeometry x="-1" relative="1" as="geometry" />
        </mxCell>
        <mxCell id="57" value="many" style="edgeLabel;resizable=0;align=right;verticalAlign=top;" vertex="1" parent="55">
          <mxGeometry x="1" relative="1" as="geometry" />
        </mxCell>
        <mxCell id="58" value="reserves" style="curved=1;startArrow=none;endArrow=none;exitX=0.9995721726190476;exitY=0.028027986013367187;entryX=0.1294222857122362;entryY=1;" edge="1" parent="1" source="26" target="33">
          <mxGeometry relative="1" as="geometry">
            <Array as="points">
              <mxPoint x="549" y="435" />
            </Array>
          </mxGeometry>
        </mxCell>
        <mxCell id="59" value="1" style="edgeLabel;resizable=0;align=left;verticalAlign=top;" vertex="1" parent="58">
          <mxGeometry x="-1" relative="1" as="geometry" />
        </mxCell>
        <mxCell id="60" value="many" style="edgeLabel;resizable=0;align=right;verticalAlign=top;" vertex="1" parent="58">
          <mxGeometry x="1" relative="1" as="geometry" />
        </mxCell>
        <mxCell id="61" value="requires" style="curved=1;startArrow=none;endArrow=none;exitX=0.4986979166666667;exitY=1;entryX=0.9684762188118232;entryY=0;" edge="1" parent="1" source="26" target="21">
          <mxGeometry relative="1" as="geometry">
            <Array as="points">
              <mxPoint x="393" y="677" />
            </Array>
          </mxGeometry>
        </mxCell>
        <mxCell id="62" value="1" style="edgeLabel;resizable=0;align=left;verticalAlign=top;" vertex="1" parent="61">
          <mxGeometry x="-1" relative="1" as="geometry" />
        </mxCell>
        <mxCell id="63" value="many" style="edgeLabel;resizable=0;align=right;verticalAlign=top;" vertex="1" parent="61">
          <mxGeometry x="1" relative="1" as="geometry" />
        </mxCell>
        <mxCell id="64" value="assigned-to" style="curved=1;startArrow=none;endArrow=none;exitX=0.5965971863521582;exitY=1;entryX=0.9995721726190476;entryY=0.23101767770519158;" edge="1" parent="1" source="33" target="26">
          <mxGeometry relative="1" as="geometry">
            <Array as="points">
              <mxPoint x="666" y="435" />
            </Array>
          </mxGeometry>
        </mxCell>
        <mxCell id="65" value="1" style="edgeLabel;resizable=0;align=left;verticalAlign=top;" vertex="1" parent="64">
          <mxGeometry x="-1" relative="1" as="geometry" />
        </mxCell>
        <mxCell id="66" value="many" style="edgeLabel;resizable=0;align=right;verticalAlign=top;" vertex="1" parent="64">
          <mxGeometry x="1" relative="1" as="geometry" />
        </mxCell>
      </root>
    </mxGraphModel>
  </diagram>
</mxfile>
